<?xml version="1.0" standalone="no"?>
<!DOCTYPE svg PUBLIC "-//W3C//DTD SVG 1.1//EN" "http://www.w3.org/Graphics/SVG/1.1/DTD/svg11.dtd" >
<svg xmlns="http://www.w3.org/2000/svg">
<metadata></metadata>
<defs>
<font id="thomas_headlinelight" horiz-adv-x="1638" >
<font-face units-per-em="2048" ascent="1536" descent="-512" />
<missing-glyph horiz-adv-x="389" />
<glyph horiz-adv-x="0" />
<glyph horiz-adv-x="682" />
<glyph unicode=" "  horiz-adv-x="389" />
<glyph unicode="&#x09;" horiz-adv-x="389" />
<glyph unicode="&#xa0;" horiz-adv-x="389" />
<glyph unicode="!" horiz-adv-x="497" d="M145 82q0 43 30 72.5t73 29.5t72.5 -29.5t29.5 -72.5t-29.5 -72.5t-72.5 -29.5t-73 29.5t-30 72.5zM176 1411h146l-9 -1079h-129z" />
<glyph unicode="&#x22;" horiz-adv-x="645" d="M121 1411h135q-5 -152 -14 -559h-109zM387 1411h135l-12 -559h-111z" />
<glyph unicode="#" horiz-adv-x="1255" d="M63 403l23 119h227l74 381h-227l24 119h228l73 389h119l-74 -389h310l73 389h119l-74 -389h228l-25 -119h-227l-74 -381h227l-22 -119h-227l-78 -403h-119l78 403h-309l-78 -403h-119l78 403h-228zM432 522h309l74 381h-309z" />
<glyph unicode="$" horiz-adv-x="1077" d="M74 395h145q3 -117 90.5 -200.5t212.5 -83.5q143 0 228.5 85t85.5 197q0 37 -9.5 68.5t-22.5 54t-40 43.5t-49 34.5t-64 29.5t-70 25t-81.5 26t-85.5 28q-80 27 -138 67.5t-89.5 88.5t-45.5 96.5t-14 100.5q0 150 98 252t250 123v225h103v-223q154 -14 260.5 -119.5 t107.5 -253.5h-143q-3 95 -77 168t-177 73q-114 0 -197.5 -64t-83.5 -167q0 -168 189 -231q45 -15 132.5 -41.5t119.5 -38.5q115 -41 191.5 -134t76.5 -218q0 -76 -26 -147.5t-74 -130.5t-125.5 -99t-173.5 -49v-224h-103v224q-171 17 -284.5 136.5t-116.5 278.5z" />
<glyph unicode="%" horiz-adv-x="1466" d="M94 1130q0 122 86 207.5t207 85.5t207 -85.5t86 -207.5q0 -121 -85.5 -206.5t-207.5 -85.5t-207.5 85.5t-85.5 206.5zM211 1130q0 -72 52 -124t124 -52t124 52t52 124t-52 124.5t-124 52.5t-124 -52.5t-52 -124.5zM295 0l743 1411h127l-739 -1411h-131zM786 281 q0 121 85.5 206.5t207.5 85.5t207.5 -85.5t85.5 -206.5t-86 -207t-207 -86t-207 86t-86 207zM903 281q0 -72 52 -124.5t124 -52.5t124 52.5t52 124.5t-52 124t-124 52t-124 -52t-52 -124z" />
<glyph unicode="&#x26;" horiz-adv-x="1355" d="M106 373q7 108 84 197.5t220 185.5l47 30l-58 62q-78 86 -112.5 147t-34.5 121q0 133 99 221t229 88q146 0 246.5 -84t101.5 -229q1 -66 -56 -145.5t-149 -145.5l-76 -55l336 -350l188 184l95 -92l-199 -184l236 -246q-17 -14 -50.5 -40t-48.5 -40l-223 238l-117 -105 q-169 -151 -370 -151q-176 0 -288 109.5t-100 283.5zM242 373q-10 -117 63 -190.5t189 -73.5q143 0 280 118l115 107l-344 356l-27 -18q-265 -175 -276 -299zM385 1114q0 -38 26.5 -81.5t88.5 -108.5l65 -70l80 59q69 52 111 104.5t41 90.5q-1 91 -62.5 143t-154.5 52 q-80 0 -137.5 -53t-57.5 -136z" />
<glyph unicode="'" horiz-adv-x="378" d="M121 1411h135q-5 -152 -14 -559h-109z" />
<glyph unicode="(" horiz-adv-x="651" d="M127 528q0 359 98.5 616.5t263.5 344.5l62 -94q-135 -110 -210 -331t-75 -534t75 -534.5t210 -331.5l-62 -94q-165 87 -263.5 343t-98.5 615z" />
<glyph unicode=")" horiz-adv-x="651" d="M102 -336q135 110 210 331.5t75 534.5t-75 534t-210 331l62 94q165 -87 263.5 -344.5t98.5 -616.5t-98.5 -615t-263.5 -343z" />
<glyph unicode="*" horiz-adv-x="1155" d="M215 1167l45 131l260 -100l-14 283h141l-14 -283l264 100l41 -133l-270 -75l174 -224l-111 -78l-151 234l-162 -234l-105 80l170 215zM418 786v2l4 -2h-4z" />
<glyph unicode="+" horiz-adv-x="1161" d="M129 567v123h389v393h125v-393h389v-123h-389v-393h-125v393h-389z" />
<glyph unicode="," horiz-adv-x="436" d="M10 -258q119 251 152 459l141 -25q-55 -244 -201 -467z" />
<glyph unicode="-" horiz-adv-x="700" d="M82 401v129h536v-129h-536z" />
<glyph unicode="." horiz-adv-x="450" d="M123 82q0 43 29.5 72.5t72.5 29.5t73 -29.5t30 -72.5t-30 -72.5t-73 -29.5t-72.5 29.5t-29.5 72.5z" />
<glyph unicode="/" horiz-adv-x="1048" d="M51 -162l797 1643h143l-792 -1643h-148z" />
<glyph unicode="0" horiz-adv-x="1218" d="M111 707q0 153 30.5 283t90.5 230t157 157t221 57q123 0 219.5 -56.5t156.5 -156.5t91 -230.5t31 -285.5q0 -119 -18.5 -226t-58.5 -199t-97.5 -159t-140.5 -105.5t-183 -38.5q-126 0 -222.5 56t-156.5 156.5t-90 231t-30 286.5zM252 705q0 -129 21 -235t63.5 -186.5 t112.5 -125.5t161 -45q117 0 198.5 80t119 210t37.5 299q0 170 -37.5 301.5t-119.5 213t-200 81.5q-119 0 -201 -81t-118.5 -211.5t-36.5 -300.5z" />
<glyph unicode="1" horiz-adv-x="528" d="M63 1214v132l334 88v-1434h-141v1266z" />
<glyph unicode="2" horiz-adv-x="1060" d="M98 1032q11 84 44 156t86 127t130 86t170 31q181 0 305.5 -119t124.5 -293q0 -118 -59.5 -222.5t-202.5 -269.5l-352 -393h606v-135h-837v78l477 536q127 154 177 236.5t50 169.5q0 120 -84 199t-205 79q-113 0 -192 -73t-96 -193h-142z" />
<glyph unicode="3" horiz-adv-x="1058" d="M88 299l137 29q25 -98 97 -156t182 -61q131 0 221 80t90 204q0 117 -74.5 200t-193.5 83h-105v135h62q119 0 196.5 62t77.5 178q0 106 -65.5 173.5t-182.5 71.5q-100 0 -160 -44.5t-89 -139.5l-134 35q34 137 131.5 211t243.5 74q179 0 288.5 -106.5t109.5 -262.5 q0 -107 -47 -191t-144 -126q102 -33 164.5 -133.5t62.5 -217.5q0 -179 -130.5 -299.5t-317.5 -120.5q-159 0 -275 89t-145 233z" />
<glyph unicode="4" horiz-adv-x="1167" d="M61 309l2 70l719 1032h101v-969h194v-133h-194v-309h-142v309h-680zM266 442h475v684z" />
<glyph unicode="5" horiz-adv-x="1107" d="M59 244l119 75q49 -97 137.5 -152.5t192.5 -55.5q157 0 256.5 100.5t99.5 247.5q0 80 -27.5 145.5t-72.5 105.5t-100.5 61.5t-114.5 21.5q-105 0 -221 -68h-150l146 686h632v-135h-516l-84 -395q97 43 199 43q189 0 320 -130.5t131 -332.5q0 -215 -139.5 -349.5 t-362.5 -134.5q-138 0 -257.5 72t-187.5 195z" />
<glyph unicode="6" horiz-adv-x="1134" d="M111 700q0 128 13 232.5t47 200.5t87.5 160.5t138.5 102.5t197 38q61 0 117 -12t111 -38t100.5 -74.5t74.5 -115.5l-127 -57q-25 59 -72.5 97t-97 52t-106.5 14q-81 0 -141.5 -29.5t-97 -78.5t-59.5 -124.5t-31.5 -153.5t-10.5 -181q125 156 334 156q183 0 313.5 -133.5 t130.5 -319.5q0 -128 -65 -234t-170 -164t-224 -58q-135 0 -247 79q-57 40 -96.5 88.5t-62.5 100t-35.5 125.5t-16.5 146t-4 181zM272 434q0 -133 91 -227t219 -94t218.5 94t90.5 227t-90.5 227.5t-218.5 94.5t-219 -94.5t-91 -227.5z" />
<glyph unicode="7" horiz-adv-x="1085" d="M82 1276v135h922v-88l-760 -1323h-160l729 1276h-731z" />
<glyph unicode="8" horiz-adv-x="1093" d="M100 406q0 120 59 214t167 154q-71 51 -109.5 127t-38.5 166q0 151 107.5 259t265.5 108t266.5 -107.5t108.5 -259.5q0 -86 -41.5 -163.5t-110.5 -129.5q102 -53 160.5 -150t58.5 -216q0 -182 -127 -306.5t-315 -124.5q-190 0 -320.5 124.5t-130.5 304.5zM244 408 q0 -124 87.5 -209.5t217.5 -85.5q128 0 215.5 85.5t87.5 209.5t-88 211.5t-215 87.5q-131 -3 -218 -89.5t-87 -209.5zM313 1067q0 -98 69 -163.5t173 -67.5q97 2 164 68t67 161q0 96 -68.5 164.5t-166.5 68.5t-168 -68t-70 -163z" />
<glyph unicode="9" horiz-adv-x="1132" d="M102 977q0 129 65.5 235t170.5 164t223 58q135 0 254 -84q123 -91 165 -215.5t42 -343.5q0 -101 -5 -184t-19.5 -168.5t-37.5 -152t-60.5 -125.5t-87.5 -97.5t-120.5 -61t-156.5 -22.5q-62 0 -120.5 12t-117 38.5t-107.5 77t-79 119.5l129 58q24 -59 73.5 -99.5 t103 -56.5t109.5 -16q83 0 144.5 28.5t99.5 76t61.5 122.5t33.5 152t14 182q-124 -150 -332 -150q-184 0 -314.5 133.5t-130.5 319.5zM244 985q0 -134 88.5 -231t216.5 -97q129 0 220.5 91t92.5 225q0 134 -88 230.5t-215 96.5q-128 0 -221.5 -91.5t-93.5 -223.5z" />
<glyph unicode=":" horiz-adv-x="477" d="M135 82q0 43 30 72.5t73 29.5t72.5 -29.5t29.5 -72.5t-29.5 -72.5t-72.5 -29.5t-73 29.5t-30 72.5zM135 831q0 43 30 73t73 30t72.5 -30t29.5 -73t-29.5 -72.5t-72.5 -29.5t-73 29.5t-30 72.5z" />
<glyph unicode=";" horiz-adv-x="440" d="M23 -258q117 247 151 459l141 -25q-29 -127 -83.5 -249.5t-116.5 -217.5zM135 831q0 43 30 73t73 30t72.5 -30t29.5 -73t-29.5 -72.5t-72.5 -29.5t-73 29.5t-30 72.5z" />
<glyph unicode="&#x3c;" horiz-adv-x="1206" d="M100 563v137l375 164q198 83 598 256v-149l-817 -338l817 -340v-148z" />
<glyph unicode="=" horiz-adv-x="1161" d="M129 393v123h903v-123h-903zM129 715v123h903v-123h-903z" />
<glyph unicode="&#x3e;" horiz-adv-x="1206" d="M131 145v148l815 338q-125 51 -407.5 170t-407.5 170v149l612 -264q176 -76 361 -156v-137z" />
<glyph unicode="?" horiz-adv-x="937" d="M96 1026q3 185 102 296.5t273 111.5q156 0 261.5 -106t105.5 -281q0 -203 -217 -345q-32 -21 -52.5 -57t-28 -86t-9 -79t-1.5 -77v-24h-141v24v53t3 57.5t8 66t16 62.5t27 65t41.5 55t58.5 51q153 99 153 234q0 114 -65 183.5t-160 69.5q-109 0 -171 -74.5t-64 -199.5 h-140zM356 82q0 43 30 72.5t73 29.5t72.5 -29.5t29.5 -72.5t-29.5 -72.5t-72.5 -29.5t-73 29.5t-30 72.5z" />
<glyph unicode="@" horiz-adv-x="1675" d="M133 702q0 150 56.5 285t153.5 232.5t232.5 155t286.5 57.5q126 0 247.5 -43.5t218 -120.5t155.5 -194.5t59 -254.5q0 -129 -51.5 -238.5t-156 -179t-242.5 -69.5h-230q-154 0 -263.5 107.5t-109.5 262.5t109.5 262t263.5 107q161 0 253.5 -109.5t92.5 -271.5v-211 q93 43 146 137t53 203q0 102 -46 193t-122 153.5t-174.5 98.5t-202.5 36q-122 0 -232 -47.5t-189 -127.5t-126 -190.5t-47 -232.5q0 -162 79 -296.5t215.5 -211.5t299.5 -77h346v-135h-346q-202 0 -369.5 95.5t-263.5 260.5t-96 364zM627 702q0 -99 69 -167t166 -68h209v223 q0 101 -58 173.5t-151 72.5q-98 0 -166.5 -67.5t-68.5 -166.5z" />
<glyph unicode="A" horiz-adv-x="1263" d="M10 0l576 1411h102l565 -1411h-153l-154 387h-627l-155 -387h-154zM373 520h520l-260 658z" />
<glyph unicode="B" horiz-adv-x="1163" d="M174 0v1411h352q118 0 204 -28t135.5 -78.5t72.5 -114.5t23 -143q0 -202 -160 -297q258 -84 258 -357q0 -103 -49.5 -191t-135.5 -139q-66 -39 -143.5 -51t-198.5 -12h-358zM315 135h232q177 0 274 61t97 201q0 269 -371 269h-232v-531zM315 797h207q153 0 226 70.5 t73 179.5q0 229 -291 229h-215v-479z" />
<glyph unicode="C" horiz-adv-x="1374" d="M104 700q0 149 56 284t151.5 233.5t228 156.5t279.5 58q146 0 275 -53t225 -152l-100 -97q-76 79 -180.5 121.5t-223.5 42.5q-157 0 -288 -80t-206 -216.5t-75 -297.5t75 -296t206 -214t288 -79q121 0 226.5 42t181.5 121l96 -100q-196 -199 -504 -199q-146 0 -278 57.5 t-227 155t-150.5 231.5t-55.5 281z" />
<glyph unicode="D" horiz-adv-x="1374" d="M174 0v1411h399q156 0 287.5 -55.5t219.5 -151.5t137 -224.5t49 -274.5q0 -194 -86.5 -355t-241.5 -255.5t-346 -94.5h-418zM315 135h277q151 0 273.5 76t190.5 206.5t68 287.5q0 118 -39 222.5t-108.5 182.5t-174.5 124q-103 45 -224 44h-5l-258 -2v-1141z" />
<glyph unicode="E" horiz-adv-x="1036" d="M174 0v1411h760v-135h-619v-477h570v-135h-570v-529h629v-135h-770z" />
<glyph unicode="F" horiz-adv-x="954" d="M174 0v1411h711v-135h-570v-477h494v-135h-494v-664h-141z" />
<glyph unicode="G" horiz-adv-x="1556" d="M102 700q0 150 56 285.5t151.5 234t228.5 156.5t281 58q135 0 268.5 -64t243.5 -172l-102 -94q-176 194 -410 194q-119 0 -226 -47.5t-183.5 -127.5t-121 -190.5t-44.5 -232.5q0 -119 44.5 -228t120.5 -187.5t181.5 -125t222.5 -46.5q202 0 333.5 118t166.5 334h-416 l2 133h567q-4 -337 -180.5 -529t-472.5 -192q-146 0 -278 57.5t-227 154t-150.5 230.5t-55.5 281z" />
<glyph unicode="H" horiz-adv-x="1376" d="M174 0v1411h141v-612h746v612h141v-1411h-141v664h-746v-664h-141z" />
<glyph unicode="I" horiz-adv-x="489" d="M174 0v1411h141v-1411h-141z" />
<glyph unicode="J" horiz-adv-x="489" d="M-174 -197q24 -4 51 -4q135 0 216 97t81 311v1204h141v-1204q0 -147 -33.5 -254.5t-94.5 -169t-138 -90.5t-172 -29q-23 0 -51 4v135z" />
<glyph unicode="K" horiz-adv-x="1112" d="M174 0v1411h141v-643l562 643h180l-596 -682l665 -729h-188l-623 682v-682h-141z" />
<glyph unicode="L" horiz-adv-x="874" d="M174 0v1411h141v-1276h492v-135h-633z" />
<glyph unicode="M" horiz-adv-x="1622" d="M174 0v1411h111l526 -682l526 682h111v-1411h-141v1149l-465 -602h-62l-465 602v-1149h-141z" />
<glyph unicode="N" horiz-adv-x="1462" d="M174 0v1411h111l860 -1141v1141h141v-1411h-112l-859 1141v-1141h-141z" />
<glyph unicode="O" d="M104 709q0 146 56.5 280t152.5 231.5t229 155.5t279 58q145 0 277.5 -58t227.5 -156t151.5 -232.5t56.5 -282.5t-56.5 -282.5t-152.5 -232t-229 -155.5t-279 -58t-278 57.5t-227 155.5t-151.5 233.5t-56.5 285.5zM246 709q0 -163 75 -300t206.5 -216.5t289.5 -79.5 q119 0 225.5 46.5t183.5 126t122 189t45 230.5q0 162 -75.5 298t-208 215.5t-290.5 79.5t-290 -79t-207.5 -214.5t-75.5 -295.5z" />
<glyph unicode="P" horiz-adv-x="1077" d="M174 0v1411h399q110 0 195 -32t137.5 -89t79.5 -131t27 -162q0 -182 -111 -296.5t-328 -114.5h-258v-586h-141zM315 719h258q148 0 222.5 77t74.5 201t-75.5 202.5t-223.5 78.5h-256v-559z" />
<glyph unicode="Q" d="M104 709q0 146 56.5 280t152.5 231.5t229 155.5t279 58q145 0 277.5 -58t227.5 -156t151.5 -232.5t56.5 -282.5q0 -172 -74 -322t-203 -252l152 -190l-104 -82l-158 198q-154 -80 -330 -80q-146 0 -278 57.5t-227 155.5t-151.5 233.5t-56.5 285.5zM246 709 q0 -163 75 -300t206.5 -216.5t289.5 -79.5q132 0 244 53l-225 285l104 81l234 -294q102 84 160.5 205.5t58.5 261.5q0 162 -75.5 298t-208 215.5t-290.5 79.5t-290 -79t-207.5 -214.5t-75.5 -295.5z" />
<glyph unicode="R" horiz-adv-x="1075" d="M174 0v1411h373q110 0 195 -32t137.5 -89t79 -131t26.5 -162q0 -164 -96.5 -277t-270.5 -130l416 -590h-170l-413 586h-136v-586h-141zM315 719h232q138 0 217.5 78.5t79.5 199.5q0 124 -75.5 202.5t-223.5 78.5h-230v-559z" />
<glyph unicode="S" horiz-adv-x="1077" d="M74 395h145q3 -117 90.5 -200.5t212.5 -83.5q143 0 228.5 85t85.5 197q0 87 -43 137.5t-129 87.5q-31 13 -69.5 26t-95 31t-85.5 27q-80 27 -138 67.5t-89.5 88.5t-45.5 96.5t-14 100.5q0 164 116.5 271.5t284.5 107.5q171 0 294 -107.5t124 -267.5h-143q-3 95 -77 168 t-177 73q-114 0 -197.5 -64t-83.5 -167q0 -168 189 -231q40 -14 129 -43t123 -41q117 -41 192.5 -132t75.5 -216q0 -80 -28.5 -155.5t-82.5 -137t-141 -99t-193 -37.5q-193 0 -324 122t-134 296z" />
<glyph unicode="T" horiz-adv-x="1046" d="M57 1276v135h932v-135h-397v-1276h-141v1276h-394z" />
<glyph unicode="U" horiz-adv-x="1327" d="M168 489v922h141v-922q0 -175 101.5 -276.5t255.5 -101.5q151 0 251.5 101.5t100.5 276.5v922h141v-922q0 -235 -141.5 -373.5t-351.5 -138.5q-138 0 -250 59.5t-180 177.5t-68 275z" />
<glyph unicode="V" horiz-adv-x="1046" d="M-2 1411h152l374 -1145l373 1145h152l-476 -1411h-100z" />
<glyph unicode="W" horiz-adv-x="1689" d="M-2 1411h145l361 -1116l297 997h88l297 -997l360 1116h146l-457 -1411h-98l-293 985l-291 -985h-98z" />
<glyph unicode="X" horiz-adv-x="1058" d="M-2 0l451 745l-406 666h166l321 -539l328 539h164l-410 -666l449 -745h-164l-369 618l-366 -618h-164z" />
<glyph unicode="Y" horiz-adv-x="1079" d="M-2 1411h166l375 -625l376 625h166l-471 -778v-633h-141v633z" />
<glyph unicode="Z" horiz-adv-x="1128" d="M70 0v76l772 1200h-719v135h919v-76l-774 -1200h768v-135h-966z" />
<glyph unicode="[" horiz-adv-x="612" d="M176 -420v1901h340v-133h-201v-1635h201v-133h-340z" />
<glyph unicode="\" horiz-adv-x="1048" d="M57 1481h144l796 -1643h-147z" />
<glyph unicode="]" horiz-adv-x="614" d="M96 -287h199v1635h-199v133h340v-1901h-340v133z" />
<glyph unicode="_" horiz-adv-x="1261" d="M80 -123h1100v-135h-1100v135z" />
<glyph unicode="`" horiz-adv-x="976" d="M256 1399l152 35l180 -287l-107 -27z" />
<glyph unicode="a" horiz-adv-x="1196" d="M96 481q0 144 62 257.5t169.5 176t239.5 62.5q216 0 348 -180v159h140v-956h-140v160q-61 -90 -152.5 -136.5t-193.5 -46.5q-203 0 -338 141.5t-135 362.5zM236 481q0 -165 95.5 -267.5t246.5 -102.5q150 0 246 99t96 269q0 165 -100 266t-242 101q-148 0 -245 -102 t-97 -263z" />
<glyph unicode="b" horiz-adv-x="1200" d="M141 0v1411h140v-616q62 91 154.5 136.5t197.5 45.5q201 0 336 -140t135 -358t-136 -358.5t-337 -140.5q-104 0 -197.5 45.5t-152.5 134.5v-160h-140zM276 479q0 -170 96.5 -269t248.5 -99q146 0 238.5 101.5t92.5 264.5q0 164 -91.5 266.5t-237.5 102.5t-246.5 -101 t-100.5 -266z" />
<glyph unicode="c" horiz-adv-x="1005" d="M96 477q0 217 144 358.5t356 141.5q183 0 356 -152l-86 -102q-67 62 -130.5 92.5t-141.5 30.5q-154 0 -257.5 -103.5t-103.5 -265.5t102.5 -264t258.5 -102q67 0 135.5 28t124.5 78l82 -102q-160 -135 -340 -135q-138 0 -252.5 63t-181 177t-66.5 257z" />
<glyph unicode="d" horiz-adv-x="1200" d="M96 479q0 219 134.5 358.5t334.5 139.5q105 0 197 -45.5t156 -136.5v616h141v-1411h-141v160q-62 -89 -154.5 -134.5t-196.5 -45.5q-131 0 -238.5 62.5t-170 177t-62.5 259.5zM246 477q0 -162 92.5 -264t239.5 -102q151 0 247.5 99t96.5 269q0 165 -100.5 266t-246.5 101 t-237.5 -102.5t-91.5 -266.5z" />
<glyph unicode="e" horiz-adv-x="1116" d="M96 479q0 222 132 360t337 138q202 0 328.5 -137t126.5 -361q0 -29 -2 -41h-782q24 -150 112.5 -239.5t222.5 -89.5q190 0 301 190l123 -63q-66 -121 -178.5 -188.5t-247.5 -67.5q-206 0 -339.5 139t-133.5 360zM242 563h632q-19 128 -103 206.5t-204 78.5 q-126 0 -216 -79.5t-109 -205.5z" />
<glyph unicode="f" horiz-adv-x="520" d="M6 829v127h141v80q0 200 91.5 287.5t259.5 87.5h57v-131h-53q-106 0 -161.5 -54.5t-55.5 -199.5v-70h241v-127h-239v-829h-140v829h-141z" />
<glyph unicode="g" horiz-adv-x="1198" d="M96 475q0 219 135 360.5t338 141.5q102 0 194 -46.5t152 -135.5v161h142v-872q0 -158 -36 -273t-102.5 -182t-153 -98t-196.5 -31q-157 0 -271.5 87t-160.5 241l129 35q32 -111 112.5 -171.5t192.5 -60.5q189 0 266.5 125t77.5 412q-60 -91 -154 -139.5t-196 -48.5 q-200 0 -334.5 139t-134.5 356zM238 477q0 -172 96 -269t241 -97q143 0 244 98.5t101 265.5q0 171 -99 272t-243 101q-148 0 -244 -105t-96 -266z" />
<glyph unicode="h" horiz-adv-x="1060" d="M141 0v1411h140v-604q53 85 133 127.5t168 42.5q164 0 254 -104t90 -300v-573h-140v567q0 279 -219 279q-133 0 -209.5 -83.5t-76.5 -260.5v-502h-140z" />
<glyph unicode="i" horiz-adv-x="643" d="M215 1305q0 43 30.5 74.5t73.5 31.5t75 -31.5t32 -74.5q0 -44 -32 -75.5t-75 -31.5t-73.5 31.5t-30.5 75.5zM252 0v956h139v-956h-139z" />
<glyph unicode="j" horiz-adv-x="421" d="M-102 -367h26q104 0 160.5 58t56.5 203v1062h140v-1071q0 -383 -351 -383h-32v131zM104 1307q-1 43 30.5 74.5t74.5 31.5t75.5 -31.5t32.5 -74.5q0 -44 -32.5 -75.5t-75.5 -31.5t-74 31.5t-31 75.5z" />
<glyph unicode="k" horiz-adv-x="913" d="M141 0v1411h140v-836l376 381h181l-406 -407l496 -549h-178l-469 518v-518h-140z" />
<glyph unicode="l" horiz-adv-x="497" d="M135 373v1038h139v-1030q0 -146 56.5 -204t161.5 -58h26v-131h-31q-352 0 -352 385z" />
<glyph unicode="m" horiz-adv-x="1656" d="M141 0v956h142v-145q48 82 126 124t154 42q103 0 182 -50.5t119 -138.5q35 68 91.5 112t111.5 60.5t113 16.5q161 0 250.5 -103.5t89.5 -295.5v-578h-140v565q0 138 -53 209.5t-158 71.5q-119 0 -192.5 -81.5t-73.5 -242.5v-522h-139v559q0 138 -54 212.5t-159 74.5 q-116 0 -192 -85t-76 -243v-518h-142z" />
<glyph unicode="n" horiz-adv-x="1067" d="M141 0v956h140v-149q53 87 133 128.5t172 41.5q163 0 251.5 -102.5t88.5 -301.5v-573h-140v561q0 285 -221 285q-127 0 -205.5 -86t-78.5 -258v-502h-140z" />
<glyph unicode="o" horiz-adv-x="1181" d="M96 485q0 140 66.5 253t180.5 176t251 63q205 0 348 -141.5t143 -356.5q0 -216 -143.5 -357.5t-349.5 -141.5q-137 0 -250 63.5t-179.5 180t-66.5 261.5zM236 481q0 -166 99.5 -268t254.5 -102q156 0 256 101t100 267q0 163 -100 265t-254 102q-155 0 -255.5 -101.5 t-100.5 -263.5z" />
<glyph unicode="p" horiz-adv-x="1200" d="M141 -500v1456h140v-161q63 89 155.5 135.5t194.5 46.5q201 0 337 -142t136 -362q0 -219 -134.5 -356t-336.5 -137q-105 0 -197.5 44.5t-154.5 133.5v-658h-140zM276 473q0 -166 100.5 -264t244.5 -98q148 0 244 99t96 261q0 164 -95.5 269.5t-242.5 105.5 q-153 0 -250 -102t-97 -271z" />
<glyph unicode="q" horiz-adv-x="1200" d="M96 473q0 220 135.5 362t335.5 142q102 0 193.5 -46.5t157.5 -135.5v161h141v-1456h-141v658q-64 -89 -156 -133.5t-197 -44.5q-201 0 -335 137t-134 356zM238 471q0 -162 96 -261t244 -99q144 0 244 98t100 264q0 169 -97.5 271t-249.5 102q-147 0 -242 -105.5 t-95 -269.5z" />
<glyph unicode="r" horiz-adv-x="667" d="M141 0v956h140v-159h4q46 98 102 139t145 41q91 0 150 -39l-49 -125q-58 33 -113 33q-239 0 -239 -469v-377h-140z" />
<glyph unicode="s" horiz-adv-x="837" d="M72 283h141q12 -73 66 -123.5t129 -50.5q98 0 150 47.5t52 111.5q0 42 -37.5 84.5t-89.5 57.5l-153 47q-75 23 -125 67.5t-70 91t-20 95.5q0 117 91.5 191.5t219.5 74.5q119 0 206.5 -75.5t102.5 -190.5h-143q-12 55 -58.5 95t-103.5 40q-74 0 -125 -34.5t-51 -94.5 q0 -92 121 -129l119 -37q118 -36 187 -105t69 -172q0 -120 -90.5 -207t-249.5 -87q-134 0 -229 89.5t-109 213.5z" />
<glyph unicode="t" horiz-adv-x="649" d="M63 829v127h140v355h139v-355h190v-127h-190v-448q0 -145 57 -203.5t160 -58.5h29v-131h-33q-352 0 -352 385v456h-140z" />
<glyph unicode="u" horiz-adv-x="1060" d="M135 383v573h137v-561q0 -284 224 -284q128 0 206 85.5t78 258.5v501h140v-956h-140v150q-53 -87 -133 -128.5t-172 -41.5q-163 0 -251.5 102t-88.5 301z" />
<glyph unicode="v" horiz-adv-x="1124" d="M100 956h154l309 -737q32 77 142.5 338t166.5 399h152q-66 -157 -204.5 -478t-205.5 -478h-104q-66 157 -204.5 477.5t-205.5 478.5z" />
<glyph unicode="w" horiz-adv-x="1441" d="M12 956h154l256 -698l233 651h136l229 -655q49 144 131 354q22 56 63.5 173.5t63.5 174.5h152q-68 -181 -199.5 -518.5t-169.5 -437.5h-84l-254 711q-22 -63 -258 -711h-86q-13 36 -367 956z" />
<glyph unicode="x" horiz-adv-x="962" d="M12 0l389 516l-323 440h168l237 -329l244 329h168l-324 -438q64 -85 190 -259t189 -259h-162l-305 410l-301 -410h-170z" />
<glyph unicode="y" horiz-adv-x="989" d="M12 956h158l334 -743q50 118 159.5 371.5t159.5 371.5h154l-520 -1179q-19 -45 -39.5 -82t-39 -64.5t-41.5 -48.5t-40 -34.5t-43.5 -23t-43 -14.5t-46 -7t-46 -2.5t-49.5 -0.5h-3h-21q0 16 1 67t1 68h19q35 0 58 2.5t52 14t51.5 32t48 58.5t50.5 92l94 209z" />
<glyph unicode="z" horiz-adv-x="1021" d="M84 0v63l621 762l-586 -2v133h809v-65l-617 -760h613v-131h-840z" />
<glyph unicode="{" horiz-adv-x="768" d="M135 477v115q60 11 93.5 55.5t33.5 114.5v344q0 190 83.5 286.5t246.5 96.5h80v-121h-35q-238 0 -238 -313v-252q0 -112 -23.5 -174t-101.5 -97q125 -66 125 -225v-330q0 -86 20 -142.5t60 -83.5t84 -37t109 -11v-121h-21q-4 0 -12 -1t-12 -1h-35q-330 0 -330 393v332 q0 69 -33 116t-94 56z" />
<glyph unicode="|" horiz-adv-x="632" d="M256 -303v1823h123v-1823h-123z" />
<glyph unicode="}" horiz-adv-x="765" d="M94 -297h64q207 0 207 234v372q0 167 129 223q-77 38 -103 103t-26 170v248q0 84 -25 157q-26 93 -83.5 123.5t-162.5 32.5v123h74q340 0 340 -391v-336q0 -71 31 -117.5t92 -56.5v-115q-58 -9 -90.5 -54t-32.5 -114v-313q0 -399 -315 -412h-99v123z" />
<glyph unicode="&#xa1;" horiz-adv-x="481" d="M137 1329q0 43 30 73t73 30t72.5 -30t29.5 -73t-29.5 -72.5t-72.5 -29.5t-73 29.5t-30 72.5zM166 0l8 1079h129l8 -1079h-145z" />
<glyph unicode="&#xa2;" horiz-adv-x="1005" d="M96 477q0 204 129 342t324 156v215h100v-217q152 -18 303 -148l-86 -102q-67 62 -130.5 92.5t-141.5 30.5q-154 0 -257.5 -103.5t-103.5 -265.5t102.5 -264t258.5 -102q67 0 135.5 28t124.5 78l82 -102q-136 -116 -287 -131v-217h-100v215q-195 18 -324 155.5t-129 339.5 z" />
<glyph unicode="&#xa3;" horiz-adv-x="1048" d="M88 0v127h191v545h-191v127h191l2 202q0 59 14.5 117.5t47.5 116t82 101.5t124 71t166 27q158 0 299 -123l-88 -105q-101 101 -217 101q-74 0 -131.5 -28.5t-90 -73t-49 -93t-16.5 -96.5l-2 -217h336v-127h-336v-545h500v-127h-832z" />
<glyph unicode="&#xa4;" horiz-adv-x="1253" d="M104 1182l78 78l174 -177q135 97 271 97q72 0 134 -22t132 -73l174 175l78 -78l-174 -176q96 -140 96 -273q0 -72 -22 -132.5t-74 -135.5l176 -176l-76 -80l-176 176q-125 -94 -268 -94q-136 0 -271 94l-172 -176l-78 80l173 174q-95 135 -95 270q0 139 95 271zM313 733 q0 -131 92 -224t222 -93q129 0 220 93t91 224q0 132 -91 227t-218 95q-132 0 -224 -94t-92 -228z" />
<glyph unicode="&#xa5;" horiz-adv-x="1247" d="M57 1411h166l398 -625l401 625h168l-408 -623h283v-106h-342l-33 -51v-148h375v-102h-375v-381h-141v381h-367v102h367v146l-33 53h-334v106h277z" />
<glyph unicode="&#xa6;" horiz-adv-x="636" d="M258 -303v723h123v-723h-123zM258 784v736h123v-736h-123z" />
<glyph unicode="&#xa7;" horiz-adv-x="1331" d="M209 702q0 94 51 166t146 144q-91 91 -91 217q0 100 52 177t135 116t182 39q152 0 251.5 -73.5t102.5 -215.5h-133q-7 84 -69.5 128t-151.5 44q-106 0 -172 -59t-66 -164q0 -116 132 -189q182 -93 315 -158q59 -30 98 -55.5t75 -62.5t53.5 -85t17.5 -110 q0 -80 -53 -161.5t-128 -129.5q121 -102 121 -254q0 -101 -57 -182t-146.5 -123.5t-189.5 -42.5q-183 0 -300 116.5t-126 299.5h137q9 -135 82.5 -217t206.5 -82q104 0 182 64t78 167q0 39 -11 72t-26.5 55.5t-45.5 45.5t-53.5 37t-64.5 36q-40 21 -107 55.5t-122.5 63 t-105.5 53.5q-94 47 -146.5 111t-52.5 157zM342 711q0 -112 117 -174l391 -195q66 38 111 96.5t45 120.5q0 123 -140 197l-366 180q-68 -37 -113 -98t-45 -127z" />
<glyph unicode="&#xa8;" horiz-adv-x="960" d="M199 1284q0 41 29.5 70.5t70.5 29.5t70.5 -29.5t29.5 -70.5t-29.5 -70.5t-70.5 -29.5t-70.5 29.5t-29.5 70.5zM561 1284q0 41 30 70.5t71 29.5t70.5 -29.5t29.5 -70.5t-29.5 -70.5t-70.5 -29.5t-71 29.5t-30 70.5z" />
<glyph unicode="&#xa9;" horiz-adv-x="1665" d="M104 705q0 149 57.5 283.5t154.5 232.5t232 155.5t283 57.5t283.5 -57.5t233 -155t155.5 -233t58 -283.5t-58 -283t-155.5 -232.5t-232.5 -155t-284 -57.5q-148 0 -283 57.5t-232 155t-154.5 232t-57.5 283.5zM221 705q0 -166 81.5 -307t222 -222.5t306.5 -81.5 q125 0 238.5 48.5t195.5 130t130.5 194.5t48.5 238q0 168 -80 308.5t-219.5 222t-306.5 81.5q-125 0 -239 -48t-197 -130t-132 -195.5t-49 -238.5zM453 694q0 168 116 287t281 119q168 0 291 -129l-82 -76q-90 96 -211 96q-119 0 -202 -87.5t-83 -209.5q0 -123 82.5 -210 t202.5 -87q121 0 219 95l72 -78q-120 -123 -291 -123q-165 0 -280 117.5t-115 285.5z" />
<glyph unicode="&#xab;" horiz-adv-x="905" d="M88 467l293 407l111 -32l-267 -375l267 -373l-111 -35zM397 467l189 260l104 147l109 -32l-264 -375l264 -373l-109 -35z" />
<glyph unicode="&#xac;" horiz-adv-x="1206" d="M123 512v131h952v-510h-141v379h-811z" />
<glyph unicode="&#xad;" horiz-adv-x="700" d="M82 401v129h536v-129h-536z" />
<glyph unicode="&#xae;" horiz-adv-x="1665" d="M104 705q0 149 57.5 283.5t154.5 232.5t232 155.5t283 57.5t283.5 -57.5t233 -155t155.5 -233t58 -283.5t-58 -283t-155.5 -232.5t-232.5 -155t-284 -57.5q-148 0 -283 57.5t-232 155t-154.5 232t-57.5 283.5zM221 705q0 -166 81.5 -307t222 -222.5t306.5 -81.5 q125 0 238.5 48.5t195.5 130t130.5 194.5t48.5 238q0 168 -80 308.5t-219.5 222t-306.5 81.5q-125 0 -239 -48t-197 -130t-132 -195.5t-49 -238.5zM618 303v784h216q123 0 186 -66.5t63 -172.5q0 -84 -48 -147t-132 -83l223 -315h-133l-219 309h-45v-309h-111zM729 719h105 q65 1 102 36.5t37 92.5q0 59 -36 96t-106 37h-102v-262z" />
<glyph unicode="&#xaf;" horiz-adv-x="968" d="M223 1214v125h520v-125h-520z" />
<glyph unicode="&#xb0;" horiz-adv-x="1007" d="M240 1157q0 112 78 191t188 79q107 0 184.5 -79.5t77.5 -188.5q0 -110 -77.5 -189t-186.5 -79q-110 0 -187 78t-77 188zM342 1157q0 -68 47.5 -116t114.5 -48t114.5 48.5t47.5 117.5q0 67 -47.5 115.5t-114.5 48.5t-114.5 -48.5t-47.5 -117.5z" />
<glyph unicode="&#xb1;" horiz-adv-x="1208" d="M156 0v121h895v-121h-895zM156 612v121h385v379h125v-379h385v-121h-385v-372h-125v372h-385z" />
<glyph unicode="&#xb2;" horiz-adv-x="716" d="M98 1354q13 107 80 176t178 69q106 0 180 -70.5t74 -172.5q0 -70 -34 -130t-117 -159l-191 -211h336v-94h-495v57l274 309q71 85 101 133t30 95q0 65 -46 108t-112 43q-61 0 -104.5 -42t-54.5 -111h-99z" />
<glyph unicode="&#xb3;" horiz-adv-x="706" d="M80 944l94 21q14 -55 55 -89.5t101 -35.5q71 0 120.5 43.5t49.5 111.5q0 64 -41 109t-107 45h-67v94h45q64 0 105.5 33t41.5 96q0 58 -35 94t-98 37q-54 0 -87 -25.5t-50 -80.5l-92 24q22 86 79.5 132t145.5 46q106 0 170.5 -64.5t64.5 -156.5q0 -55 -25 -103t-69 -77 q51 -26 83 -83.5t32 -119.5q0 -105 -77.5 -177.5t-186.5 -72.5q-95 0 -164 55.5t-88 143.5z" />
<glyph unicode="&#xb4;" horiz-adv-x="976" d="M365 1149l180 287l151 -35l-221 -279z" />
<glyph unicode="&#xb5;" horiz-adv-x="1067" d="M141 -436v1392h140v-569q0 -136 56.5 -207t168.5 -71q127 0 203.5 86t76.5 260v501h140v-956h-140v150q-110 -173 -288 -173q-70 0 -120.5 19t-98.5 67v-499h-138z" />
<glyph unicode="&#xb6;" horiz-adv-x="999" d="M14 1030q0 183 114.5 282t320.5 99h442v-1612h-117v1520h-239v-1520h-117v863q-169 0 -286.5 108t-117.5 260z" />
<glyph unicode="&#xb7;" horiz-adv-x="460" d="M123 496q0 44 31 75t75 31t75.5 -31t31.5 -75t-31.5 -75.5t-75.5 -31.5t-75 31.5t-31 75.5z" />
<glyph unicode="&#xb8;" horiz-adv-x="1028" d="M295 -438l244 372l151 -34l-284 -365z" />
<glyph unicode="&#xb9;" horiz-adv-x="602" d="M178 1454v92l209 56v-842h-98v723z" />
<glyph unicode="&#xbb;" horiz-adv-x="903" d="M102 94l265 373l-265 375l109 32l104 -147l189 -260l-293 -408zM410 94l266 373l-266 375l110 32l293 -407l-293 -408z" />
<glyph unicode="&#xbc;" horiz-adv-x="1656" d="M203 1257v93l209 55v-842h-99v723zM324 0l860 1411h116l-864 -1411h-112zM965 176l2 51l415 598h70v-555h113v-94h-113v-176h-96v176h-391zM1104 270h252v361z" />
<glyph unicode="&#xbd;" horiz-adv-x="1667" d="M201 1257v93l209 55v-842h-99v723zM285 0l860 1411h117l-865 -1411h-112zM1040 592q13 107 80 176.5t178 69.5q106 0 180 -71t74 -173q0 -70 -34 -130t-117 -159l-191 -211h336v-94h-495v57l274 310q72 86 101.5 133.5t29.5 93.5q0 65 -46 108t-112 43q-61 0 -104.5 -42 t-54.5 -111h-99z" />
<glyph unicode="&#xbe;" horiz-adv-x="1667" d="M106 745l95 21q14 -56 54.5 -90t100.5 -35q70 0 120 44t50 112q0 64 -40.5 108.5t-106.5 44.5h-68v94h45q64 0 106 33.5t42 96.5q0 58 -35 94t-98 37q-105 0 -138 -107l-92 25q22 86 80 132t146 46q106 0 170.5 -64.5t64.5 -156.5q0 -56 -25 -104t-69 -77q51 -26 83 -83 t32 -119q0 -105 -77.5 -177.5t-187.5 -72.5q-95 0 -164 55t-88 143zM395 0l860 1411h117l-864 -1411h-113zM973 176l2 51l416 598h69v-555h113v-94h-113v-176h-96v176h-391zM1112 270h252v361z" />
<glyph unicode="&#xbf;" horiz-adv-x="927" d="M96 367q0 202 217 344q26 17 44.5 47.5t27 57.5t13 70.5t5 63.5t0.5 60v24h142v-24v-53t-3 -57.5t-8 -66t-16 -62.5t-27 -65t-41.5 -55t-58.5 -51q-153 -99 -153 -233q0 -114 65 -184t160 -70q109 0 171 74.5t64 199.5h140q-3 -185 -102 -296t-273 -111 q-156 0 -261.5 106t-105.5 281zM373 1331q0 43 29.5 73t72.5 30t73 -30t30 -73t-30 -72.5t-73 -29.5t-72.5 29.5t-29.5 72.5z" />
<glyph unicode="&#xc0;" horiz-adv-x="1263" d="M10 0l576 1411h102l565 -1411h-153l-154 387h-627l-155 -387h-154zM373 520h520l-260 658zM412 1802l151 35l180 -287l-106 -26z" />
<glyph unicode="&#xc1;" horiz-adv-x="1263" d="M10 0l576 1411h102l565 -1411h-153l-154 387h-627l-155 -387h-154zM373 520h520l-260 658zM524 1552l181 287l151 -35l-221 -278z" />
<glyph unicode="&#xc2;" horiz-adv-x="1263" d="M10 0l576 1411h102l565 -1411h-153l-154 387h-627l-155 -387h-154zM354 1563l221 260h113l230 -260l-119 -39l-166 178l-166 -178zM373 520h520l-260 658z" />
<glyph unicode="&#xc3;" horiz-adv-x="1263" d="M10 0l576 1411h102l565 -1411h-153l-154 387h-627l-155 -387h-154zM352 1608q16 90 64 136t110 46q47 0 133 -55q53 -35 74 -35q61 0 84 90l94 -33q-18 -90 -67 -135t-109 -45q-44 0 -127 49q-6 3 -18.5 10.5t-19 11t-16 7.5t-16.5 6t-14 2q-66 0 -80 -90zM373 520h520 l-260 658z" />
<glyph unicode="&#xc4;" horiz-adv-x="1263" d="M10 0l576 1411h102l565 -1411h-153l-154 387h-627l-155 -387h-154zM352 1688q0 41 30 70.5t71 29.5t70.5 -29.5t29.5 -70.5t-29.5 -71t-70.5 -30t-71 30t-30 71zM373 520h520l-260 658zM715 1688q0 41 29.5 70.5t70.5 29.5t70.5 -29.5t29.5 -70.5t-29.5 -71t-70.5 -30 t-70.5 30t-29.5 71z" />
<glyph unicode="&#xc5;" horiz-adv-x="1263" d="M10 0l576 1411h102l565 -1411h-153l-154 387h-627l-155 -387h-154zM373 520h520l-260 658zM438 1712q0 82 56.5 138.5t138.5 56.5q79 0 134.5 -57t55.5 -140q0 -78 -56 -133t-134 -55q-83 0 -139 55t-56 135zM539 1712q0 -41 26.5 -66.5t67.5 -25.5q40 0 65 25.5t25 66.5 q0 43 -25 69.5t-65 26.5q-41 0 -67.5 -27.5t-26.5 -68.5z" />
<glyph unicode="&#xc6;" horiz-adv-x="1843" d="M6 0l756 1411h743l33 -135h-618l114 -477h570l32 -135h-569l129 -531h629l33 -133h-771l-92 387h-624l-209 -387h-156zM440 520h521l-154 684z" />
<glyph unicode="&#xc7;" horiz-adv-x="1374" d="M104 700q0 149 56 284t151.5 233.5t228 156.5t279.5 58q146 0 275 -53t225 -152l-100 -97q-76 79 -180.5 121.5t-223.5 42.5q-157 0 -288 -80t-206 -216.5t-75 -297.5t75 -296t206 -214t288 -79q121 0 226.5 42t181.5 121l96 -100q-196 -199 -504 -199q-146 0 -278 57.5 t-227 155t-150.5 231.5t-55.5 281zM520 -475l244 373l151 -35l-284 -365z" />
<glyph unicode="&#xc8;" horiz-adv-x="1058" d="M174 0v1411h760v-135h-619v-477h570v-135h-570v-529h629v-135h-770zM340 1802l152 35l180 -287l-107 -26z" />
<glyph unicode="&#xc9;" horiz-adv-x="1058" d="M174 0v1411h760v-135h-619v-477h570v-135h-570v-529h629v-135h-770zM436 1552l180 287l152 -35l-221 -278z" />
<glyph unicode="&#xca;" horiz-adv-x="1058" d="M174 0v1411h760v-135h-619v-477h570v-135h-570v-529h629v-135h-770zM287 1563l221 260h113l229 -260l-119 -39l-166 178l-166 -178z" />
<glyph unicode="&#xcb;" horiz-adv-x="1058" d="M174 0v1411h760v-135h-619v-477h570v-135h-570v-529h629v-135h-770zM270 1688q0 41 30 70.5t71 29.5t70.5 -29.5t29.5 -70.5t-29.5 -71t-70.5 -30t-71 30t-30 71zM633 1688q0 41 29.5 70.5t70.5 29.5t71 -29.5t30 -70.5t-30 -71t-71 -30t-70.5 30t-29.5 71z" />
<glyph unicode="&#xcc;" horiz-adv-x="489" d="M20 1802l152 35l180 -287l-106 -26zM174 0v1411h141v-1411h-141z" />
<glyph unicode="&#xcd;" horiz-adv-x="489" d="M133 1552l180 287l152 -35l-221 -278zM174 0v1411h141v-1411h-141z" />
<glyph unicode="&#xce;" horiz-adv-x="489" d="M-35 1563l221 260h113l229 -260l-118 -39l-166 178l-166 -178zM174 0v1411h141v-1411h-141z" />
<glyph unicode="&#xcf;" horiz-adv-x="489" d="M-37 1688q0 41 29.5 70.5t70.5 29.5t71 -29.5t30 -70.5t-30 -71t-71 -30t-70.5 30t-29.5 71zM174 0v1411h141v-1411h-141zM326 1688q0 41 29.5 70.5t70.5 29.5t70.5 -29.5t29.5 -70.5t-29.5 -71t-70.5 -30t-70.5 30t-29.5 71z" />
<glyph unicode="&#xd0;" horiz-adv-x="1374" d="M4 668v129h170v614h399q156 0 287.5 -55.5t219.5 -151.5t137 -224.5t49 -274.5q0 -194 -86.5 -355t-241.5 -255.5t-346 -94.5h-418v668h-170zM315 135h277q151 0 273.5 76t190.5 206.5t68 287.5q0 118 -39 222.5t-108.5 182.5t-174.5 123.5t-229 44.5l-258 -2v-479h338 v-129h-338v-533z" />
<glyph unicode="&#xd1;" horiz-adv-x="1460" d="M174 0v1411h111l860 -1141v1141h141v-1411h-112l-859 1141v-1141h-141zM442 1608q16 90 64 136t110 46q48 0 134 -55q52 -35 73 -35q61 0 84 90l94 -33q-18 -90 -67 -135t-109 -45q-44 0 -127 49q-6 3 -18.5 10.5t-19 11t-16 7.5t-16.5 6t-14 2q-65 0 -79 -90z" />
<glyph unicode="&#xd2;" d="M104 709q0 146 56.5 280t152.5 231.5t229 155.5t279 58q145 0 277.5 -58t227.5 -156t151.5 -232.5t56.5 -282.5t-56.5 -282.5t-152.5 -232t-229 -155.5t-279 -58t-278 57.5t-227 155.5t-151.5 233.5t-56.5 285.5zM246 709q0 -163 75 -300t206.5 -216.5t289.5 -79.5 q119 0 225.5 46.5t183.5 126t122 189t45 230.5q0 162 -75.5 298t-208 215.5t-290.5 79.5t-290 -79t-207.5 -214.5t-75.5 -295.5zM594 1802l151 35l181 -287l-107 -26z" />
<glyph unicode="&#xd3;" d="M104 709q0 146 56.5 280t152.5 231.5t229 155.5t279 58q145 0 277.5 -58t227.5 -156t151.5 -232.5t56.5 -282.5t-56.5 -282.5t-152.5 -232t-229 -155.5t-279 -58t-278 57.5t-227 155.5t-151.5 233.5t-56.5 285.5zM246 709q0 -163 75 -300t206.5 -216.5t289.5 -79.5 q119 0 225.5 46.5t183.5 126t122 189t45 230.5q0 162 -75.5 298t-208 215.5t-290.5 79.5t-290 -79t-207.5 -214.5t-75.5 -295.5zM707 1552l180 287l151 -35l-221 -278z" />
<glyph unicode="&#xd4;" d="M104 709q0 146 56.5 280t152.5 231.5t229 155.5t279 58q145 0 277.5 -58t227.5 -156t151.5 -232.5t56.5 -282.5t-56.5 -282.5t-152.5 -232t-229 -155.5t-279 -58t-278 57.5t-227 155.5t-151.5 233.5t-56.5 285.5zM246 709q0 -163 75 -300t206.5 -216.5t289.5 -79.5 q119 0 225.5 46.5t183.5 126t122 189t45 230.5q0 162 -75.5 298t-208 215.5t-290.5 79.5t-290 -79t-207.5 -214.5t-75.5 -295.5zM541 1563l221 260h112l230 -260l-119 -39l-166 178l-166 -178z" />
<glyph unicode="&#xd5;" d="M104 709q0 146 56.5 280t152.5 231.5t229 155.5t279 58q145 0 277.5 -58t227.5 -156t151.5 -232.5t56.5 -282.5t-56.5 -282.5t-152.5 -232t-229 -155.5t-279 -58t-278 57.5t-227 155.5t-151.5 233.5t-56.5 285.5zM246 709q0 -163 75 -300t206.5 -216.5t289.5 -79.5 q119 0 225.5 46.5t183.5 126t122 189t45 230.5q0 162 -75.5 298t-208 215.5t-290.5 79.5t-290 -79t-207.5 -214.5t-75.5 -295.5zM543 1608q16 90 64 136t110 46q47 0 133 -55q52 -35 74 -35q62 0 84 90l94 -33q-18 -90 -67 -135t-109 -45q-44 0 -127 49q-6 3 -18.5 10.5 t-19 11t-16 7.5t-16.5 6t-14 2q-66 0 -80 -90z" />
<glyph unicode="&#xd6;" d="M104 709q0 146 56.5 280t152.5 231.5t229 155.5t279 58q145 0 277.5 -58t227.5 -156t151.5 -232.5t56.5 -282.5t-56.5 -282.5t-152.5 -232t-229 -155.5t-279 -58t-278 57.5t-227 155.5t-151.5 233.5t-56.5 285.5zM246 709q0 -163 75 -300t206.5 -216.5t289.5 -79.5 q119 0 225.5 46.5t183.5 126t122 189t45 230.5q0 162 -75.5 298t-208 215.5t-290.5 79.5t-290 -79t-207.5 -214.5t-75.5 -295.5zM541 1688q0 41 29.5 70.5t70.5 29.5t70.5 -29.5t29.5 -70.5t-29.5 -71t-70.5 -30t-70.5 30t-29.5 71zM903 1688q0 41 30 70.5t71 29.5 t70.5 -29.5t29.5 -70.5t-29.5 -71t-70.5 -30t-71 30t-30 71z" />
<glyph unicode="&#xd7;" horiz-adv-x="1110" d="M174 340l297 301l-297 301l84 84l297 -301l297 301l82 -84l-129 -131q-18 -19 -52.5 -54t-62 -64t-51.5 -54l295 -299l-82 -88l-297 303l-297 -301q-57 57 -84 86z" />
<glyph unicode="&#xd8;" d="M104 702q0 199 95.5 367t260.5 266.5t361 98.5q129 0 238.5 -40.5t220.5 -131.5l170 174l78 -80l-166 -174q88 -115 130 -230t42 -247q0 -148 -56.5 -282.5t-152 -232t-228 -155.5t-278.5 -58q-129 0 -241 42t-226 131l-159 -164l-82 77l163 166q-170 222 -170 473z M246 702q0 -188 127 -372l807 837q-147 129 -359 129q-119 0 -226 -46.5t-183.5 -126t-121 -189.5t-44.5 -232zM451 250q72 -64 169 -100.5t201 -36.5q117 0 223.5 46.5t182.5 125.5t121 188t45 229q0 209 -129 381z" />
<glyph unicode="&#xd9;" horiz-adv-x="1327" d="M168 489v922h141v-922q0 -175 101.5 -276.5t255.5 -101.5q151 0 251.5 101.5t100.5 276.5v922h141v-922q0 -235 -141.5 -373.5t-351.5 -138.5q-138 0 -250 59.5t-180 177.5t-68 275zM440 1802l152 35l180 -287l-106 -26z" />
<glyph unicode="&#xda;" horiz-adv-x="1327" d="M168 489v922h141v-922q0 -175 101.5 -276.5t255.5 -101.5q151 0 251.5 101.5t100.5 276.5v922h141v-922q0 -235 -141.5 -373.5t-351.5 -138.5q-138 0 -250 59.5t-180 177.5t-68 275zM555 1552l180 287l152 -35l-221 -278z" />
<glyph unicode="&#xdb;" horiz-adv-x="1327" d="M168 489v922h141v-922q0 -175 101.5 -276.5t255.5 -101.5q151 0 251.5 101.5t100.5 276.5v922h141v-922q0 -235 -141.5 -373.5t-351.5 -138.5q-138 0 -250 59.5t-180 177.5t-68 275zM387 1563l221 260h113l229 -260l-119 -39l-165 178l-166 -178z" />
<glyph unicode="&#xdc;" horiz-adv-x="1327" d="M168 489v922h141v-922q0 -175 101.5 -276.5t255.5 -101.5q151 0 251.5 101.5t100.5 276.5v922h141v-922q0 -235 -141.5 -373.5t-351.5 -138.5q-138 0 -250 59.5t-180 177.5t-68 275zM391 1688q0 41 30 70.5t71 29.5t70.5 -29.5t29.5 -70.5t-29.5 -71t-70.5 -30t-71 30 t-30 71zM754 1688q0 41 29.5 70.5t70.5 29.5t70.5 -29.5t29.5 -70.5t-29.5 -71t-70.5 -30t-70.5 30t-29.5 71z" />
<glyph unicode="&#xdd;" horiz-adv-x="1079" d="M-2 1411h166l375 -625l376 625h166l-471 -778v-633h-141v633zM428 1552l180 287l152 -35l-221 -278z" />
<glyph unicode="&#xde;" horiz-adv-x="1048" d="M174 0v1411h141v-231h230q112 0 210.5 -50t161 -145t62.5 -215q0 -186 -119 -300t-309 -114h-236v-356h-141zM315 494h177q350 0 350 276q0 77 -26.5 131.5t-76 85t-111.5 44t-143 13.5h-170v-550z" />
<glyph unicode="&#xdf;" horiz-adv-x="1142" d="M141 0v1022q0 197 101 304.5t288 107.5q167 0 275 -100t108 -242q0 -81 -42 -156t-113 -109q136 -39 212.5 -146.5t76.5 -242.5q0 -142 -85.5 -260.5t-230.5 -167.5q-142 -47 -303 -18v123q44 -9 107 -9q168 0 271 94.5t103 241.5q0 132 -90 217.5t-227 85.5h-88v127h63 q85 0 147 68.5t62 155.5q0 91 -68 150t-171 59q-258 0 -258 -316v-989h-138z" />
<glyph unicode="&#xe0;" horiz-adv-x="1196" d="M96 481q0 144 62 257.5t169.5 176t239.5 62.5q216 0 348 -180v159h140v-956h-140v160q-61 -90 -152.5 -136.5t-193.5 -46.5q-203 0 -338 141.5t-135 362.5zM236 481q0 -165 95.5 -267.5t246.5 -102.5q150 0 246 99t96 269q0 165 -100 266t-242 101q-148 0 -245 -102 t-97 -263zM383 1399l152 35l180 -287l-107 -27z" />
<glyph unicode="&#xe1;" horiz-adv-x="1196" d="M96 481q0 144 62 257.5t169.5 176t239.5 62.5q216 0 348 -180v159h140v-956h-140v160q-61 -90 -152.5 -136.5t-193.5 -46.5q-203 0 -338 141.5t-135 362.5zM236 481q0 -165 95.5 -267.5t246.5 -102.5q150 0 246 99t96 269q0 165 -100 266t-242 101q-148 0 -245 -102 t-97 -263zM489 1149l181 287l151 -35l-221 -279z" />
<glyph unicode="&#xe2;" horiz-adv-x="1196" d="M96 481q0 144 62 257.5t169.5 176t239.5 62.5q216 0 348 -180v159h140v-956h-140v160q-61 -90 -152.5 -136.5t-193.5 -46.5q-203 0 -338 141.5t-135 362.5zM236 481q0 -165 95.5 -267.5t246.5 -102.5q150 0 246 99t96 269q0 165 -100 266t-242 101q-148 0 -245 -102 t-97 -263zM311 1159l221 260h113l229 -260l-118 -39l-166 178l-166 -178z" />
<glyph unicode="&#xe3;" horiz-adv-x="1196" d="M96 481q0 144 62 257.5t169.5 176t239.5 62.5q216 0 348 -180v159h140v-956h-140v160q-61 -90 -152.5 -136.5t-193.5 -46.5q-203 0 -338 141.5t-135 362.5zM236 481q0 -165 95.5 -267.5t246.5 -102.5q150 0 246 99t96 269q0 165 -100 266t-242 101q-148 0 -245 -102 t-97 -263zM297 1204q16 90 64 136t110 46q47 0 133 -55q52 -35 74 -35q62 0 84 90l94 -32q-18 -90 -67 -135t-109 -45q-44 0 -127 49q-6 3 -18.5 10.5t-19 11t-16 7.5t-16.5 6t-14 2q-66 0 -80 -91z" />
<glyph unicode="&#xe4;" horiz-adv-x="1196" d="M96 481q0 144 62 257.5t169.5 176t239.5 62.5q216 0 348 -180v159h140v-956h-140v160q-61 -90 -152.5 -136.5t-193.5 -46.5q-203 0 -338 141.5t-135 362.5zM236 481q0 -165 95.5 -267.5t246.5 -102.5q150 0 246 99t96 269q0 165 -100 266t-242 101q-148 0 -245 -102 t-97 -263zM319 1284q0 41 30 70.5t71 29.5t70.5 -29.5t29.5 -70.5t-29.5 -70.5t-70.5 -29.5t-71 29.5t-30 70.5zM682 1284q0 41 29.5 70.5t70.5 29.5t71 -29.5t30 -70.5t-30 -70.5t-71 -29.5t-70.5 29.5t-29.5 70.5z" />
<glyph unicode="&#xe5;" horiz-adv-x="1196" d="M96 481q0 144 62 257.5t169.5 176t239.5 62.5q216 0 348 -180v159h140v-956h-140v160q-61 -90 -152.5 -136.5t-193.5 -46.5q-203 0 -338 141.5t-135 362.5zM236 481q0 -165 95.5 -267.5t246.5 -102.5q150 0 246 99t96 269q0 165 -100 266t-242 101q-148 0 -245 -102 t-97 -263zM389 1309q0 82 56.5 138t138.5 56q79 0 134.5 -56.5t55.5 -139.5q0 -78 -56 -133.5t-134 -55.5q-83 0 -139 55.5t-56 135.5zM489 1309q0 -41 26.5 -66.5t68.5 -25.5q40 0 65 25.5t25 66.5q0 43 -25 69.5t-65 26.5q-41 0 -68 -27.5t-27 -68.5z" />
<glyph unicode="&#xe6;" horiz-adv-x="1964" d="M96 481q0 217 135 356.5t336 139.5q103 0 194 -45t157 -135v159h137v-161q55 80 150 131t194 51q213 0 341 -136t128 -362q0 -29 -2 -41h-787q25 -151 113 -240t225 -89q189 0 303 190l121 -63q-68 -122 -182 -189t-256 -67q-102 0 -196.5 51.5t-151.5 132.5v-164h-137 v160q-61 -89 -154 -136t-195 -47q-202 0 -337.5 142t-135.5 362zM238 481q0 -165 95 -267.5t245 -102.5q151 0 247.5 99t96.5 269q0 165 -100.5 266t-243.5 101q-146 0 -243 -102t-97 -263zM1085 563h635q-20 128 -104 206.5t-203 78.5q-127 0 -217.5 -79t-110.5 -206z" />
<glyph unicode="&#xe7;" horiz-adv-x="1005" d="M96 477q0 217 144 358.5t356 141.5q183 0 356 -152l-86 -102q-67 62 -130.5 92.5t-141.5 30.5q-154 0 -257.5 -103.5t-103.5 -265.5t102.5 -264t258.5 -102q67 0 135.5 28t124.5 78l82 -102q-160 -135 -340 -135q-138 0 -252.5 63t-181 177t-66.5 257zM295 -438l244 372 l151 -34l-284 -365z" />
<glyph unicode="&#xe8;" horiz-adv-x="1116" d="M96 479q0 222 132 360t337 138q202 0 328.5 -137t126.5 -361q0 -29 -2 -41h-782q24 -150 112.5 -239.5t222.5 -89.5q190 0 301 190l123 -63q-66 -121 -178.5 -188.5t-247.5 -67.5q-206 0 -339.5 139t-133.5 360zM242 563h632q-19 128 -103 206.5t-204 78.5 q-126 0 -216 -79.5t-109 -205.5zM383 1399l152 35l180 -287l-107 -27z" />
<glyph unicode="&#xe9;" horiz-adv-x="1116" d="M96 479q0 222 132 360t337 138q202 0 328.5 -137t126.5 -361q0 -29 -2 -41h-782q24 -150 112.5 -239.5t222.5 -89.5q190 0 301 190l123 -63q-66 -121 -178.5 -188.5t-247.5 -67.5q-206 0 -339.5 139t-133.5 360zM242 563h632q-19 128 -103 206.5t-204 78.5 q-126 0 -216 -79.5t-109 -205.5zM449 1149l180 287l151 -35l-221 -279z" />
<glyph unicode="&#xea;" horiz-adv-x="1116" d="M96 479q0 222 132 360t337 138q202 0 328.5 -137t126.5 -361q0 -29 -2 -41h-782q24 -150 112.5 -239.5t222.5 -89.5q190 0 301 190l123 -63q-66 -121 -178.5 -188.5t-247.5 -67.5q-206 0 -339.5 139t-133.5 360zM242 563h632q-19 128 -103 206.5t-204 78.5 q-126 0 -216 -79.5t-109 -205.5zM311 1159l221 260h113l229 -260l-118 -39l-166 178l-166 -178z" />
<glyph unicode="&#xeb;" horiz-adv-x="1116" d="M96 479q0 222 132 360t337 138q202 0 328.5 -137t126.5 -361q0 -29 -2 -41h-782q24 -150 112.5 -239.5t222.5 -89.5q190 0 301 190l123 -63q-66 -121 -178.5 -188.5t-247.5 -67.5q-206 0 -339.5 139t-133.5 360zM242 563h632q-19 128 -103 206.5t-204 78.5 q-126 0 -216 -79.5t-109 -205.5zM319 1284q0 41 30 70.5t71 29.5t70.5 -29.5t29.5 -70.5t-29.5 -70.5t-70.5 -29.5t-71 29.5t-30 70.5zM682 1284q0 41 29.5 70.5t70.5 29.5t71 -29.5t30 -70.5t-30 -70.5t-71 -29.5t-70.5 29.5t-29.5 70.5z" />
<glyph unicode="&#xec;" horiz-adv-x="419" d="M-14 1399l151 35l180 -287l-106 -27zM141 0v956h140v-956h-140z" />
<glyph unicode="&#xed;" horiz-adv-x="419" d="M104 1149l181 287l151 -35l-221 -279zM141 0v956h140v-956h-140z" />
<glyph unicode="&#xee;" horiz-adv-x="419" d="M-66 1159l222 260h112l230 -260l-119 -39l-166 178l-166 -178zM141 0v956h140v-956h-140z" />
<glyph unicode="&#xef;" horiz-adv-x="419" d="M-66 1284q0 41 30 70.5t71 29.5t70.5 -29.5t29.5 -70.5t-29.5 -70.5t-70.5 -29.5t-71 29.5t-30 70.5zM141 0v956h140v-956h-140zM297 1284q0 41 29.5 70.5t70.5 29.5t71 -29.5t30 -70.5t-30 -70.5t-71 -29.5t-70.5 29.5t-29.5 70.5z" />
<glyph unicode="&#xf0;" horiz-adv-x="1132" d="M96 446q0 199 135.5 330t329.5 131q112 0 193 -55q-100 212 -213 315l-172 -118l-68 79l170 115q-77 69 -190 141l67 70q99 -45 225 -137l156 98l64 -78l-146 -96q158 -153 314 -457q75 -153 75 -323q0 -210 -133.5 -342.5t-335.5 -132.5q-199 0 -335 130t-136 330z M238 451q0 -153 92 -244.5t235 -91.5q144 0 238 90.5t94 240.5q0 148 -94 240t-236 92q-143 0 -236 -90.5t-93 -236.5z" />
<glyph unicode="&#xf1;" horiz-adv-x="1062" d="M141 0v956h140v-149q53 87 133 128.5t172 41.5q163 0 251.5 -102.5t88.5 -301.5v-573h-140v561q0 285 -221 285q-127 0 -205.5 -86t-78.5 -258v-502h-140zM254 1204q16 90 64 136t110 46q47 0 133 -55q53 -35 74 -35q61 0 84 90l94 -32q-18 -90 -67 -135t-109 -45 q-44 0 -127 49q-6 3 -18.5 10.5t-19 11t-16 7.5t-16.5 6t-14 2q-66 0 -80 -91z" />
<glyph unicode="&#xf2;" horiz-adv-x="1181" d="M96 485q0 140 66.5 253t180.5 176t251 63q205 0 348 -141.5t143 -356.5q0 -216 -143.5 -357.5t-349.5 -141.5q-137 0 -250 63.5t-179.5 180t-66.5 261.5zM236 481q0 -166 99.5 -268t254.5 -102q156 0 256 101t100 267q0 163 -100 265t-254 102q-155 0 -255.5 -101.5 t-100.5 -263.5zM383 1399l152 35l180 -287l-107 -27z" />
<glyph unicode="&#xf3;" horiz-adv-x="1181" d="M96 485q0 140 66.5 253t180.5 176t251 63q205 0 348 -141.5t143 -356.5q0 -216 -143.5 -357.5t-349.5 -141.5q-137 0 -250 63.5t-179.5 180t-66.5 261.5zM236 481q0 -166 99.5 -268t254.5 -102q156 0 256 101t100 267q0 163 -100 265t-254 102q-155 0 -255.5 -101.5 t-100.5 -263.5zM489 1149l181 287l151 -35l-221 -279z" />
<glyph unicode="&#xf4;" horiz-adv-x="1181" d="M96 485q0 140 66.5 253t180.5 176t251 63q205 0 348 -141.5t143 -356.5q0 -216 -143.5 -357.5t-349.5 -141.5q-137 0 -250 63.5t-179.5 180t-66.5 261.5zM236 481q0 -166 99.5 -268t254.5 -102q156 0 256 101t100 267q0 163 -100 265t-254 102q-155 0 -255.5 -101.5 t-100.5 -263.5zM311 1159l221 260h113l229 -260l-118 -39l-166 178l-166 -178z" />
<glyph unicode="&#xf5;" horiz-adv-x="1181" d="M96 485q0 140 66.5 253t180.5 176t251 63q205 0 348 -141.5t143 -356.5q0 -216 -143.5 -357.5t-349.5 -141.5q-137 0 -250 63.5t-179.5 180t-66.5 261.5zM236 481q0 -166 99.5 -268t254.5 -102q156 0 256 101t100 267q0 163 -100 265t-254 102q-155 0 -255.5 -101.5 t-100.5 -263.5zM311 1204q16 90 64 136t110 46q47 0 133 -55q52 -35 74 -35q62 0 84 90l94 -32q-18 -90 -67 -135t-109 -45q-44 0 -127 49q-6 3 -18.5 10.5t-19 11t-16 7.5t-16.5 6t-14 2q-66 0 -80 -91z" />
<glyph unicode="&#xf6;" horiz-adv-x="1181" d="M96 485q0 140 66.5 253t180.5 176t251 63q205 0 348 -141.5t143 -356.5q0 -216 -143.5 -357.5t-349.5 -141.5q-137 0 -250 63.5t-179.5 180t-66.5 261.5zM236 481q0 -166 99.5 -268t254.5 -102q156 0 256 101t100 267q0 163 -100 265t-254 102q-155 0 -255.5 -101.5 t-100.5 -263.5zM315 1284q0 41 30 70.5t71 29.5t70.5 -29.5t29.5 -70.5t-29.5 -70.5t-70.5 -29.5t-71 29.5t-30 70.5zM678 1284q0 41 29.5 70.5t70.5 29.5t71 -29.5t30 -70.5t-30 -70.5t-71 -29.5t-70.5 29.5t-29.5 70.5z" />
<glyph unicode="&#xf7;" horiz-adv-x="1161" d="M129 565v125h903v-125h-903zM485 354q0 37 28.5 66t66.5 29t68 -30t30 -67q0 -38 -30 -67t-68 -29q-40 0 -67.5 28.5t-27.5 69.5zM485 901q0 39 28.5 67.5t66.5 28.5t68 -29.5t30 -66.5t-29.5 -66.5t-68.5 -29.5q-40 0 -67.5 28t-27.5 68z" />
<glyph unicode="&#xf8;" horiz-adv-x="1181" d="M88 41l117 121q-109 143 -109 319q0 141 67.5 255.5t182 177.5t250.5 63q171 0 303 -103l117 123q22 -25 78 -75l-121 -117q51 -65 81.5 -151.5t30.5 -174.5q0 -215 -141.5 -357t-345.5 -142q-95 0 -166.5 24t-150.5 84l-119 -123l-39 41zM236 479q0 -124 65 -219 l504 518q-83 68 -209 68q-156 0 -258 -102t-102 -265zM371 182q86 -71 225 -71q153 0 252.5 102t99.5 266q0 134 -69 226z" />
<glyph unicode="&#xf9;" horiz-adv-x="1060" d="M135 383v573h137v-561q0 -284 224 -284q128 0 206 85.5t78 258.5v501h140v-956h-140v150q-53 -87 -133 -128.5t-172 -41.5q-163 0 -251.5 102t-88.5 301zM315 1399l152 35l180 -287l-106 -27z" />
<glyph unicode="&#xfa;" horiz-adv-x="1060" d="M135 383v573h137v-561q0 -284 224 -284q128 0 206 85.5t78 258.5v501h140v-956h-140v150q-53 -87 -133 -128.5t-172 -41.5q-163 0 -251.5 102t-88.5 301zM408 1149l180 287l151 -35l-221 -279z" />
<glyph unicode="&#xfb;" horiz-adv-x="1060" d="M135 383v573h137v-561q0 -284 224 -284q128 0 206 85.5t78 258.5v501h140v-956h-140v150q-53 -87 -133 -128.5t-172 -41.5q-163 0 -251.5 102t-88.5 301zM242 1159l221 260h112l230 -260l-119 -39l-166 178l-166 -178z" />
<glyph unicode="&#xfc;" horiz-adv-x="1060" d="M135 383v573h137v-561q0 -284 224 -284q128 0 206 85.5t78 258.5v501h140v-956h-140v150q-53 -87 -133 -128.5t-172 -41.5q-163 0 -251.5 102t-88.5 301zM244 1284q0 41 29.5 70.5t70.5 29.5t70.5 -29.5t29.5 -70.5t-29.5 -70.5t-70.5 -29.5t-70.5 29.5t-29.5 70.5z M606 1284q0 41 30 70.5t71 29.5t70.5 -29.5t29.5 -70.5t-29.5 -70.5t-70.5 -29.5t-71 29.5t-30 70.5z" />
<glyph unicode="&#xfd;" horiz-adv-x="989" d="M12 956h158l334 -743q50 118 159.5 371.5t159.5 371.5h154l-520 -1179q-19 -45 -39.5 -82t-39 -64.5t-41.5 -48.5t-40 -34.5t-43.5 -23t-43 -14.5t-46 -7t-46 -2.5t-49.5 -0.5h-3h-21q0 16 1 67t1 68h19q35 0 58 2.5t52 14t51.5 32t48 58.5t50.5 92l94 209zM373 1149 l180 287l152 -35l-222 -279z" />
<glyph unicode="&#xfe;" horiz-adv-x="1200" d="M141 -500v1911h140v-612q59 89 151 133.5t197 44.5q202 0 338.5 -140t136.5 -358t-136 -358.5t-337 -140.5q-103 0 -196 46.5t-154 135.5v-662h-140zM276 479q0 -171 96 -270.5t249 -99.5q145 0 240 103.5t95 262.5q0 167 -93.5 270t-241.5 103q-145 0 -245 -101 t-100 -268z" />
<glyph unicode="&#xff;" horiz-adv-x="989" d="M12 956h158l334 -743q50 118 159.5 371.5t159.5 371.5h154l-520 -1179q-19 -45 -39.5 -82t-39 -64.5t-41.5 -48.5t-40 -34.5t-43.5 -23t-43 -14.5t-46 -7t-46 -2.5t-49.5 -0.5h-3h-21q0 16 1 67t1 68h19q35 0 58 2.5t52 14t51.5 32t48 58.5t50.5 92l94 209zM225 1284 q0 41 30 70.5t71 29.5t70.5 -29.5t29.5 -70.5t-29.5 -70.5t-70.5 -29.5t-71 29.5t-30 70.5zM588 1284q0 41 29.5 70.5t70.5 29.5t70.5 -29.5t29.5 -70.5t-29.5 -70.5t-70.5 -29.5t-70.5 29.5t-29.5 70.5z" />
<glyph unicode="&#x152;" horiz-adv-x="2269" d="M104 700q0 150 56 285.5t151.5 234t228 156.5t279.5 58q351 0 572 -293v270h753v-135h-614v-477h565v-135h-565v-529h624v-135h-763v272q-222 -295 -570 -295q-146 0 -279 57.5t-229 154t-152.5 230.5t-56.5 281zM246 707q0 -122 44.5 -232t120 -189.5t181 -126 t223.5 -46.5q158 0 290 77t209 213.5t77 303.5q0 162 -77 298t-209 214.5t-288 78.5q-155 0 -286.5 -80t-208 -216t-76.5 -295z" />
<glyph unicode="&#x153;" horiz-adv-x="1984" d="M96 485q0 211 145 351.5t353 140.5q136 0 248.5 -64.5t177.5 -177.5q60 115 167.5 178.5t244.5 63.5q202 0 329 -137t127 -361q0 -29 -2 -41h-784q24 -150 113 -239.5t223 -89.5q190 0 301 190l125 -63q-67 -121 -180 -188.5t-248 -67.5q-138 0 -247 63t-169 178 q-64 -113 -178 -177t-250 -64t-249.5 63.5t-180 180t-66.5 261.5zM236 481q0 -165 100 -267.5t254 -102.5q157 0 257.5 100.5t100.5 267.5q0 163 -100.5 265t-255.5 102q-154 0 -255 -102t-101 -263zM1108 563h633q-19 128 -103 206.5t-204 78.5q-125 0 -216 -79.5 t-110 -205.5z" />
<glyph unicode="&#x178;" horiz-adv-x="1079" d="M-2 1411h166l375 -625l376 625h166l-471 -778v-633h-141v633zM250 1710q0 40 30.5 71t71.5 31q43 0 74 -30.5t31 -71.5t-31 -71.5t-74 -30.5q-41 0 -71.5 30.5t-30.5 71.5zM629 1710q0 40 31.5 71t72.5 31t72 -30.5t31 -71.5q0 -42 -30 -72t-73 -30t-73.5 30.5 t-30.5 71.5z" />
<glyph unicode="&#x2c6;" horiz-adv-x="933" d="M186 1159l222 260h112l230 -260l-119 -39l-166 178l-166 -178z" />
<glyph unicode="&#x2dc;" horiz-adv-x="919" d="M180 1204q16 90 64 136t110 46q47 0 133 -55q52 -35 74 -35q61 0 84 90l94 -32q-18 -90 -67 -135t-109 -45q-44 0 -127 49q-6 3 -18.5 10.5t-19 11t-16 7.5t-16.5 6t-14 2q-66 0 -80 -91z" />
<glyph unicode="&#x2000;" horiz-adv-x="953" />
<glyph unicode="&#x2001;" horiz-adv-x="1907" />
<glyph unicode="&#x2002;" horiz-adv-x="953" />
<glyph unicode="&#x2003;" horiz-adv-x="1907" />
<glyph unicode="&#x2004;" horiz-adv-x="635" />
<glyph unicode="&#x2005;" horiz-adv-x="476" />
<glyph unicode="&#x2006;" horiz-adv-x="317" />
<glyph unicode="&#x2007;" horiz-adv-x="317" />
<glyph unicode="&#x2008;" horiz-adv-x="238" />
<glyph unicode="&#x2009;" horiz-adv-x="381" />
<glyph unicode="&#x200a;" horiz-adv-x="105" />
<glyph unicode="&#x2010;" horiz-adv-x="700" d="M82 401v129h536v-129h-536z" />
<glyph unicode="&#x2011;" horiz-adv-x="700" d="M82 401v129h536v-129h-536z" />
<glyph unicode="&#x2012;" horiz-adv-x="700" d="M82 401v129h536v-129h-536z" />
<glyph unicode="&#x2013;" horiz-adv-x="1101" d="M147 401v125h805v-125h-805z" />
<glyph unicode="&#x2014;" horiz-adv-x="1415" d="M82 401v125h1251v-125h-1251z" />
<glyph unicode="&#x2018;" horiz-adv-x="425" d="M90 995q32 128 85 249.5t108 205.5l86 -31q-101 -204 -142 -424h-137z" />
<glyph unicode="&#x2019;" horiz-adv-x="423" d="M57 1004q102 218 138 397h139q-63 -237 -189 -430z" />
<glyph unicode="&#x201a;" horiz-adv-x="423" d="M57 -188q103 216 146 448l131 -27q-60 -248 -191 -452z" />
<glyph unicode="&#x201c;" horiz-adv-x="698" d="M90 995q32 128 85 249.5t108 205.5l84 -31q-99 -207 -144 -448zM360 995q31 126 85 247.5t112 207.5l84 -31q-101 -211 -145 -448z" />
<glyph unicode="&#x201d;" horiz-adv-x="696" d="M57 1004q102 213 146 446l131 -25q-61 -251 -191 -454zM328 1004q104 217 147 446l131 -25q-31 -127 -82.5 -246.5t-107.5 -207.5z" />
<glyph unicode="&#x201e;" horiz-adv-x="698" d="M57 -188q106 222 148 446l129 -27q-57 -243 -191 -452zM328 -188q109 227 149 446l131 -27q-60 -253 -192 -452z" />
<glyph unicode="&#x2022;" horiz-adv-x="1189" d="M311 602q0 118 83.5 201.5t201.5 83.5t201.5 -83.5t83.5 -201.5t-83.5 -201.5t-201.5 -83.5t-201.5 83.5t-83.5 201.5z" />
<glyph unicode="&#x2026;" horiz-adv-x="1468" d="M123 86q0 43 29.5 73.5t72.5 30.5t74 -30.5t31 -73.5q0 -42 -31 -72t-74 -30t-72.5 29.5t-29.5 72.5zM631 86q0 43 29.5 73.5t72.5 30.5t74 -30.5t31 -73.5q0 -42 -31 -72t-74 -30t-72.5 29.5t-29.5 72.5zM1139 86q0 43 29.5 73.5t72.5 30.5t74 -30.5t31 -73.5 q0 -42 -31 -72t-74 -30t-72.5 29.5t-29.5 72.5z" />
<glyph unicode="&#x202f;" horiz-adv-x="381" />
<glyph unicode="&#x2039;" horiz-adv-x="598" d="M88 465l293 407l111 -32l-267 -375l267 -373l-111 -33z" />
<glyph unicode="&#x203a;" horiz-adv-x="598" d="M104 92l265 373l-123 174l-142 201l109 32l119 -167l174 -240l-295 -406l-55 17z" />
<glyph unicode="&#x205f;" horiz-adv-x="476" />
<glyph unicode="&#x20ac;" horiz-adv-x="1218" d="M6 498v108h127q-6 59 -6 94q0 37 4 78h-125v107h148q42 160 145 285t247 194.5t304 69.5q67 0 121 -12t139 -46v-151q-86 41 -142.5 56t-127.5 15q-182 0 -327.5 -111.5t-211.5 -299.5h522v-107h-547q-4 -30 -4 -78q0 -44 7 -92q87 0 272 -1t272 -1v-108h-516 q67 -175 212.5 -279t320.5 -104q73 0 128 15t142 58v-153q-149 -55 -268 -55q-233 0 -422 144.5t-260 373.5h-154z" />
<glyph unicode="&#x2122;" horiz-adv-x="1548" d="M61 1305v106h531v-106h-213v-678h-109v678h-209zM715 627v784h84l270 -350l272 350h84v-784h-110v579l-246 -319l-244 319v-579h-110z" />
<glyph unicode="&#x25fc;" horiz-adv-x="952" d="M0 0v952h952v-952h-952z" />
</font>
</defs>
</svg>
